#define desk_width  3
#define desk_height 3
static unsigned char desk_bits[] = {
 0xfd,0xf8,0xfd};
