#define desk_width  3
#define desk_height 3
static unsigned char desk_bits[] = {
 0xfe,0xff,0xfe};
