#define shade_width  4
#define shade_height 4
static unsigned char shade_bits[] = {
 0xf0,0xfe,0xf0,0xf0};
